<?xml version="1.0" encoding="utf-8"?>
<!-- Generator: Adobe Illustrator 26.0.0, SVG Export Plug-In . SVG Version: 6.00 Build 0)  -->
<svg version="1.1" id="Capa_1" xmlns="http://www.w3.org/2000/svg" xmlns:xlink="http://www.w3.org/1999/xlink" x="0px" y="0px"
	 viewBox="0 0 340.16 340.16" style="enable-background:new 0 0 340.16 340.16;" xml:space="preserve">
<g>
	<path d="M152.93,233.23c12.86,7.26,26.2,9.45,40.99,6.17c-6.14,6.1-11.94,11.85-17.73,17.59c-10.95,10.86-21.5,22.17-32.95,32.49
		c-23.99,21.64-59.27,22.59-83.28,2.07c-16.13-13.78-22.67-31.91-20.37-53.06c1.86-17.07,9.86-30.98,21.96-42.9
		c16.15-15.9,32.07-32.02,48.11-48.04c13.94-13.93,30.69-21.51,50.47-21.14c15.76,0.3,29.6,6.03,40.9,17.24
		c6.74,6.68,6.79,17.15,0.31,23.81c-6.08,6.25-16.86,6.75-23.25,0.33c-10.93-10.96-29.41-10.62-41.07-0.19
		c-9.64,8.62-18.49,18.12-27.64,27.28c-9.07,9.08-18.17,18.12-27.07,27.35c-6.85,7.1-10.62,15.52-9.89,25.65
		c1.19,16.5,16.74,28.05,32.95,24.51c7.16-1.56,13.19-5.05,18.34-10.16c8.91-8.86,17.79-17.76,26.69-26.63
		C151.28,234.75,152.19,233.93,152.93,233.23z"/>
	<path d="M187.44,117.2c-13.13-7.38-26.41-9.75-41.4-6.25c5.48-5.38,10.57-10.36,15.63-15.37c11.5-11.39,22.66-23.14,34.55-34.11
		c13.58-12.54,30.05-18.53,48.55-17.25c33.77,2.33,56.93,29.99,56.22,61.47c-0.43,19.06-8.16,34.82-21.5,48.07
		c-17.31,17.2-34.54,34.48-52.02,51.51c-19.63,19.12-49.17,24.18-72.83,12.3c-5.58-2.8-10.8-6.73-15.43-10.96
		c-7.01-6.4-6.99-16.72-0.72-23.44c6.23-6.67,16.61-7.34,23.44-0.72c12.31,11.94,31.29,10.21,42.78-1.05
		c18.04-17.68,35.93-35.54,53.45-53.73c9.2-9.55,12.79-21.19,7.4-34.01C258.81,77.6,239.72,72.47,224,82.21
		c-3.14,1.94-6.03,4.43-8.67,7.03C205.93,98.49,196.69,107.9,187.44,117.2z"/>
</g>
</svg>
