<svg id="Capa_1" data-name="Capa 1" xmlns="http://www.w3.org/2000/svg" viewBox="0 0 263.96 263.21"><path d="M298.57,163.87c0,24,.16,48,0,72-.22,25.85-12.14,44.59-35.91,54.75A61.75,61.75,0,0,1,239.35,295c-48,.37-96-.39-143.92.35-28.21.43-59.65-20.21-60.13-58.72-.62-49-.84-98.05,0-147C35.9,56,62.74,31.9,95.69,32.13c36.85.26,73.7,0,110.55,0,10.78,0,21.56.17,32.33,0,35.48-.55,61,28,60.12,60.79C298.06,116.57,298.57,140.23,298.57,163.87Zm-46.64-36.34a79.63,79.63,0,0,0-24.1-41.82C206.17,66.52,180.32,62,152.77,65.88,127.71,69.4,107.89,81.81,95,104.19,86.1,119.62,82.57,136.55,81.48,154c-1.61,25.73,1.13,50.77,15.46,73.12,28.18,44,96.81,46.67,131.2,12.82,18-17.71,21.83-45.45,8-64.82-5.85-8.22-14.73-14.28-23.67-22.67-4.19-24.94-15-38.22-35.48-41.4-13.93-2.16-38,3.21-43.85,19.05l13.29,9.28c9.07-11,20.55-12.62,32.59-9.15,8.61,2.47,13.18,9.37,14.11,19.17-6.34-.32-12.14-.74-17.95-.86-10.27-.2-20.15,1.86-28.95,7.17-10.5,6.34-16.74,15.29-15.92,28.32.79,12.67,6.74,21.55,18,27.17,26.34,13.15,54.57-.2,61.61-29.15.52-2.16,1.38-4.23,2.17-6.64,15.85,12.35,19.16,28.45,9.52,44.61A47.09,47.09,0,0,1,201,238.49c-12.66,6.06-26,6.76-39.69,6-28.62-1.55-50-18.46-57.83-45.83-6.08-21.21-6.1-42.74-1.36-64,5.91-26.48,21-45.19,49.17-50.19a113.07,113.07,0,0,1,21.78-1.24c28.52.56,49.06,13.17,59.72,40.35,1.07,2.75,2.58,5.33,4,8.17Z" transform="translate(-34.75 -32.13)"/><path d="M193,168.07c.63,23.68-15.54,35.93-35.07,28.27-6-2.34-10.08-6.49-10.44-13-.37-6.63,3.64-11.25,9.45-13.64C168.62,164.94,180.61,166.3,193,168.07Z" transform="translate(-34.75 -32.13)"/></svg>